#Comment line ignore any data following # character 
#Hierarchical Translation and Rotation (.htr) file 
[Header]	
#Header keywords are followed by a single value 
FileType HTR		#Single word string
DataType HTRS		#Translation followed by rotation and scale data
FileVersion 1		#integer
NumSegments 84		#integer
NumFrames 2		#integer
DataFrameRate 30		#integer, data frame rate in this file
EulerRotationOrder ZYX
CalibrationUnits mm
RotationUnits Degrees
GlobalAxisofGravity Y
BoneLengthAxis Y
ScaleFactor 1.00
[SegmentNames&Hierarchy]
#CHILD	PARENT
MASTER GLOBAL
root MASTER
chest root
L_mid_tent01 root
R_mid_tent01 root
spine01 root
Bip01_Neck chest
L_humerus chest
R_humerus chest
weapon_bone chest
Bip01_Head Bip01_Neck
eye_left_bone Bip01_Head
eye_right_bone Bip01_Head
L_forearm L_humerus
L_front_hand L_forearm
L_weapon_bone L_forearm
L_front_hand01_01 L_front_hand
L_front_hand02_01 L_front_hand
L_front_hand03_01 L_front_hand
L_front_hand01_02 L_front_hand01_01
L_front_hand02_02 L_front_hand02_01
L_front_hand03_02 L_front_hand03_01
R_forearm R_humerus
R_front_hand R_forearm
R_weapon_bone R_forearm
R_front_hand01_01 R_front_hand
R_front_hand02_01 R_front_hand
R_front_hand03_01 R_front_hand
R_front_hand01_02 R_front_hand01_01
R_front_hand02_02 R_front_hand02_01
R_front_hand03_02 R_front_hand03_01
null_rope01_connect L_mid_tent01
Rope1_Seg01 null_rope01_connect
Rope1_Seg02 Rope1_Seg01
Rope1_Seg03 Rope1_Seg02
Rope1_Seg04 Rope1_Seg03
Rope1_Seg05 Rope1_Seg04
Rope1_Seg06 Rope1_Seg05
Rope1_Seg07 Rope1_Seg06
Rope1_Seg09 Rope1_Seg07
L_mid_hand01 Rope1_Seg09
L_mid_hand02 Rope1_Seg09
L_mid_hand03 Rope1_Seg09
null_rope02_connect R_mid_tent01
Rope2_Seg01 null_rope02_connect
Rope2_Seg02 Rope2_Seg01
Rope2_Seg03 Rope2_Seg02
Rope2_Seg04 Rope2_Seg03
Rope2_Seg05 Rope2_Seg04
Rope2_Seg06 Rope2_Seg05
Rope2_Seg07 Rope2_Seg06
Rope2_Seg09 Rope2_Seg07
R_mid_hand01 Rope2_Seg09
R_mid_hand02 Rope2_Seg09
R_mid_hand03 Rope2_Seg09
spine02 spine01
spine03 spine02
pelvis spine03
null_rope03_connect pelvis
null_rope04_connect pelvis
Rope3_Seg01 null_rope03_connect
Rope3_Seg02 Rope3_Seg01
Rope3_Seg03 Rope3_Seg02
Rope3_Seg04 Rope3_Seg03
Rope3_Seg05 Rope3_Seg04
Rope3_Seg06 Rope3_Seg05
Rope3_Seg07 Rope3_Seg06
Rope3_Seg08 Rope3_Seg07
Rope3_Seg09 Rope3_Seg08
R_rear_hand01 Rope3_Seg09
R_rear_hand02 Rope3_Seg09
R_rear_hand03 Rope3_Seg09
Rope4_Seg01 null_rope04_connect
Rope4_Seg02 Rope4_Seg01
Rope4_Seg03 Rope4_Seg02
Rope4_Seg04 Rope4_Seg03
Rope4_Seg05 Rope4_Seg04
Rope4_Seg06 Rope4_Seg05
Rope4_Seg07 Rope4_Seg06
Rope4_Seg08 Rope4_Seg07
Rope4_Seg09 Rope4_Seg08
L_rear_hand01 Rope4_Seg09
L_rear_hand02 Rope4_Seg09
L_rear_hand03 Rope4_Seg09
[BasePosition]
#SegmentName Tx, Ty, Tz, Rx, Ry, Rz, BoneLength
MASTER 0.000000 0.000000 0.000000 -90.000000 0.000000 0.000000 10.000000 
root 0.000000 0.000000 0.000000 0.000000 0.000000 0.000000 10.000000 
chest 0.000000 0.000000 0.000000 0.000000 0.000000 0.000000 10.000000 
L_mid_tent01 0.000000 0.000000 0.000000 0.000000 0.000000 0.000000 10.000000 
R_mid_tent01 0.000000 0.000000 0.000000 0.000000 0.000000 0.000000 10.000000 
spine01 0.000000 0.000000 0.000000 0.000000 0.000000 0.000000 10.000000 
Bip01_Neck 0.000000 0.000000 0.000000 0.000000 0.000000 0.000000 10.000000 
L_humerus 0.000000 0.000000 0.000000 0.000000 0.000000 0.000000 10.000000 
R_humerus 0.000000 0.000000 0.000000 0.000000 0.000000 0.000000 10.000000 
weapon_bone 0.000000 0.000000 0.000000 0.000000 0.000000 0.000000 10.000000 
Bip01_Head 0.000000 0.000000 0.000000 0.000000 0.000000 0.000000 10.000000 
eye_left_bone 0.000000 0.000000 0.000000 0.000000 0.000000 0.000000 10.000000 
eye_right_bone 0.000000 0.000000 0.000000 0.000000 0.000000 0.000000 10.000000 
L_forearm 0.000000 0.000000 0.000000 0.000000 0.000000 0.000000 10.000000 
L_front_hand 0.000000 0.000000 0.000000 0.000000 0.000000 0.000000 10.000000 
L_weapon_bone 0.000000 0.000000 0.000000 0.000000 0.000000 0.000000 10.000000 
L_front_hand01_01 0.000000 0.000000 0.000000 0.000000 0.000000 0.000000 10.000000 
L_front_hand02_01 0.000000 0.000000 0.000000 0.000000 0.000000 0.000000 10.000000 
L_front_hand03_01 0.000000 0.000000 0.000000 0.000000 0.000000 0.000000 10.000000 
L_front_hand01_02 0.000000 0.000000 0.000000 0.000000 0.000000 0.000000 10.000000 
L_front_hand02_02 0.000000 0.000000 0.000000 0.000000 0.000000 0.000000 10.000000 
L_front_hand03_02 0.000000 0.000000 0.000000 0.000000 0.000000 0.000000 10.000000 
R_forearm 0.000000 0.000000 0.000000 0.000000 0.000000 0.000000 10.000000 
R_front_hand 0.000000 0.000000 0.000000 0.000000 0.000000 0.000000 10.000000 
R_weapon_bone 0.000000 0.000000 0.000000 0.000000 0.000000 0.000000 10.000000 
R_front_hand01_01 0.000000 0.000000 0.000000 0.000000 0.000000 0.000000 10.000000 
R_front_hand02_01 0.000000 0.000000 0.000000 0.000000 0.000000 0.000000 10.000000 
R_front_hand03_01 0.000000 0.000000 0.000000 0.000000 0.000000 0.000000 10.000000 
R_front_hand01_02 0.000000 0.000000 0.000000 0.000000 0.000000 0.000000 10.000000 
R_front_hand02_02 0.000000 0.000000 0.000000 0.000000 0.000000 0.000000 10.000000 
R_front_hand03_02 0.000000 0.000000 0.000000 0.000000 0.000000 0.000000 10.000000 
null_rope01_connect 0.000000 0.000000 0.000000 0.000000 0.000000 0.000000 10.000000 
Rope1_Seg01 0.000000 0.000000 0.000000 0.000000 0.000000 0.000000 10.000000 
Rope1_Seg02 0.000000 0.000000 0.000000 0.000000 0.000000 0.000000 10.000000 
Rope1_Seg03 0.000000 0.000000 0.000000 0.000000 0.000000 0.000000 10.000000 
Rope1_Seg04 0.000000 0.000000 0.000000 0.000000 0.000000 0.000000 10.000000 
Rope1_Seg05 0.000000 0.000000 0.000000 0.000000 0.000000 0.000000 10.000000 
Rope1_Seg06 0.000000 0.000000 0.000000 0.000000 0.000000 0.000000 10.000000 
Rope1_Seg07 0.000000 0.000000 0.000000 0.000000 0.000000 0.000000 10.000000 
Rope1_Seg09 0.000000 0.000000 0.000000 0.000000 0.000000 0.000000 10.000000 
L_mid_hand01 0.000000 0.000000 0.000000 0.000000 0.000000 0.000000 10.000000 
L_mid_hand02 0.000000 0.000000 0.000000 0.000000 0.000000 0.000000 10.000000 
L_mid_hand03 0.000000 0.000000 0.000000 0.000000 0.000000 0.000000 10.000000 
null_rope02_connect 0.000000 0.000000 0.000000 0.000000 0.000000 0.000000 10.000000 
Rope2_Seg01 0.000000 0.000000 0.000000 0.000000 0.000000 0.000000 10.000000 
Rope2_Seg02 0.000000 0.000000 0.000000 0.000000 0.000000 0.000000 10.000000 
Rope2_Seg03 0.000000 0.000000 0.000000 0.000000 0.000000 0.000000 10.000000 
Rope2_Seg04 0.000000 0.000000 0.000000 0.000000 0.000000 0.000000 10.000000 
Rope2_Seg05 0.000000 0.000000 0.000000 0.000000 0.000000 0.000000 10.000000 
Rope2_Seg06 0.000000 0.000000 0.000000 0.000000 0.000000 0.000000 10.000000 
Rope2_Seg07 0.000000 0.000000 0.000000 0.000000 0.000000 0.000000 10.000000 
Rope2_Seg09 0.000000 0.000000 0.000000 0.000000 0.000000 0.000000 10.000000 
R_mid_hand01 0.000000 0.000000 0.000000 0.000000 0.000000 0.000000 10.000000 
R_mid_hand02 0.000000 0.000000 0.000000 0.000000 0.000000 0.000000 10.000000 
R_mid_hand03 0.000000 0.000000 0.000000 0.000000 0.000000 0.000000 10.000000 
spine02 0.000000 0.000000 0.000000 0.000000 0.000000 0.000000 10.000000 
spine03 0.000000 0.000000 0.000000 0.000000 0.000000 0.000000 10.000000 
pelvis 0.000000 0.000000 0.000000 0.000000 0.000000 0.000000 10.000000 
null_rope03_connect 0.000000 0.000000 0.000000 0.000000 0.000000 0.000000 10.000000 
null_rope04_connect 0.000000 0.000000 0.000000 0.000000 0.000000 0.000000 10.000000 
Rope3_Seg01 0.000000 0.000000 0.000000 0.000000 0.000000 0.000000 10.000000 
Rope3_Seg02 0.000000 0.000000 0.000000 0.000000 0.000000 0.000000 10.000000 
Rope3_Seg03 0.000000 0.000000 0.000000 0.000000 0.000000 0.000000 10.000000 
Rope3_Seg04 0.000000 0.000000 0.000000 0.000000 0.000000 0.000000 10.000000 
Rope3_Seg05 0.000000 0.000000 0.000000 0.000000 0.000000 0.000000 10.000000 
Rope3_Seg06 0.000000 0.000000 0.000000 0.000000 0.000000 0.000000 10.000000 
Rope3_Seg07 0.000000 0.000000 0.000000 0.000000 0.000000 0.000000 10.000000 
Rope3_Seg08 0.000000 0.000000 0.000000 0.000000 0.000000 0.000000 10.000000 
Rope3_Seg09 0.000000 0.000000 0.000000 0.000000 0.000000 0.000000 10.000000 
R_rear_hand01 0.000000 0.000000 0.000000 0.000000 0.000000 0.000000 10.000000 
R_rear_hand02 0.000000 0.000000 0.000000 0.000000 0.000000 0.000000 10.000000 
R_rear_hand03 0.000000 0.000000 0.000000 0.000000 0.000000 0.000000 10.000000 
Rope4_Seg01 0.000000 0.000000 0.000000 0.000000 0.000000 0.000000 10.000000 
Rope4_Seg02 0.000000 0.000000 0.000000 0.000000 0.000000 0.000000 10.000000 
Rope4_Seg03 0.000000 0.000000 0.000000 0.000000 0.000000 0.000000 10.000000 
Rope4_Seg04 0.000000 0.000000 0.000000 0.000000 0.000000 0.000000 10.000000 
Rope4_Seg05 0.000000 0.000000 0.000000 0.000000 0.000000 0.000000 10.000000 
Rope4_Seg06 0.000000 0.000000 0.000000 0.000000 0.000000 0.000000 10.000000 
Rope4_Seg07 0.000000 0.000000 0.000000 0.000000 0.000000 0.000000 10.000000 
Rope4_Seg08 0.000000 0.000000 0.000000 0.000000 0.000000 0.000000 10.000000 
Rope4_Seg09 0.000000 0.000000 0.000000 0.000000 0.000000 0.000000 10.000000 
L_rear_hand01 0.000000 0.000000 0.000000 0.000000 0.000000 0.000000 10.000000 
L_rear_hand02 0.000000 0.000000 0.000000 0.000000 0.000000 0.000000 10.000000 
L_rear_hand03 0.000000 0.000000 0.000000 0.000000 0.000000 0.000000 10.000000 
#Beginning of Data. Separated by tabs
#Fr	Tx	Ty	Tz	Rx	Ry	Rz	SF
[MASTER]
21 0.000000 0.000000 0.000000 0.001660 0.001660 0.001660 0.000000
22 0.000000 0.000000 0.000000 0.001660 0.001660 0.001660 0.000000
[root]
21 -30.741714 -56.219730 1501.746094 -82.205040 -41.285564 -86.768227 1503.112427
22 -30.013201 -56.370235 1501.656738 -80.680107 -40.941227 -86.948730 1503.014160
[chest]
21 -84.512650 -34.090519 0.000000 -5.031529 -2.201876 -173.425064 91.129311
22 -84.512650 -34.090519 0.000000 -4.596740 -2.403842 -173.649261 91.129311
[L_mid_tent01]
21 27.299173 22.179106 -249.918716 2.943661 20.560829 80.100494 252.381699
22 27.299177 22.179106 -249.918701 3.064011 23.315960 80.282806 252.381699
[R_mid_tent01]
21 23.228794 24.509907 226.238495 164.145874 -32.614109 81.564735 228.744751
22 23.228794 24.509907 226.238495 163.391800 -36.546661 83.063042 228.744751
[spine01]
21 -0.361383 -0.195265 0.000000 0.002062 0.001122 32.879829 0.410763
22 -0.361383 -0.195265 0.000000 0.002062 0.001122 32.879829 0.410763
[Bip01_Neck]
21 165.484543 71.581718 0.000119 176.643677 -1.657967 43.431911 180.302734
22 165.484543 71.581718 0.000119 176.643677 -1.657967 43.431911 180.302734
[L_humerus]
21 -13.983130 -135.272980 -120.471481 162.027008 65.087250 -102.542320 181.680161
22 -13.983130 -135.272980 -120.471481 156.317429 70.210045 -112.010216 181.680161
[R_humerus]
21 -13.983309 -135.273102 125.287651 -169.080017 -54.672535 -97.848824 184.909012
22 -13.983309 -135.273102 125.287651 -172.382233 -66.903793 -92.554047 184.909012
[weapon_bone]
21 235.964890 -300.705902 0.000000 0.000000 -89.951546 -128.212341 382.234833
22 235.964890 -300.705902 0.000000 0.000000 -89.951546 -128.212341 382.234833
[Bip01_Head]
21 213.444305 185.715591 11.776940 5.468185 3.194334 -43.893394 283.173889
22 213.444305 185.715607 11.776941 2.289803 3.217908 -43.893944 283.173889
[eye_left_bone]
21 -24.626970 125.451866 -64.772606 0.000000 -90.000000 -99.840431 143.318359
22 -24.626970 125.451866 -64.772606 0.000000 -90.000000 -99.840431 143.318359
[eye_right_bone]
21 -24.626970 125.451866 64.327362 0.000000 -89.965736 80.156380 143.117676
22 -24.626970 125.451866 64.327362 0.000000 -89.965736 80.156380 143.117676
[L_forearm]
21 322.776093 0.000000 -0.000119 0.000396 -0.002314 -109.419975 322.776093
22 322.776093 0.000000 -0.000119 0.000396 -0.002314 -109.419975 322.776093
[L_front_hand]
21 241.149185 -0.042021 -3.300071 -178.667953 -1.835447 -27.422350 241.171753
22 241.149185 -0.042021 -3.300071 -178.667953 -1.835447 -27.422350 241.171753
[L_weapon_bone]
21 156.183838 0.000000 0.000000 0.000014 0.000007 0.000001 156.183838
22 156.183838 0.000000 0.000000 0.000014 0.000007 0.000001 156.183838
[L_front_hand01_01]
21 86.095154 20.947098 -0.655860 -0.310544 -0.510742 69.086288 88.609184
22 86.095154 20.947098 -0.655860 -0.315797 -0.507337 69.812813 88.609184
[L_front_hand02_01]
21 86.935165 -11.437475 24.513514 145.551544 -56.723778 -50.980377 91.046425
22 86.935165 -11.437475 24.513514 146.472076 -57.128139 -52.078453 91.046425
[L_front_hand03_01]
21 86.637497 -14.123976 -20.424902 -145.673264 54.940559 -52.833527 90.126129
22 86.637497 -14.123976 -20.424902 -146.535309 55.345268 -53.886242 90.126129
[L_front_hand01_02]
21 71.020905 -0.000179 0.000030 0.000318 -0.002326 -105.571388 71.020905
22 71.020905 -0.000179 0.000030 0.000319 -0.002325 -105.613319 71.020905
[L_front_hand02_02]
21 71.020927 -0.000119 0.000060 0.000318 -0.002326 -105.571388 71.020927
22 71.020927 -0.000119 0.000060 0.000319 -0.002325 -105.613319 71.020927
[L_front_hand03_02]
21 71.020905 -0.000060 0.000060 0.000318 -0.002326 -105.571388 71.020905
22 71.020905 -0.000060 0.000060 0.000319 -0.002325 -105.613319 71.020905
[R_forearm]
21 322.776428 -0.000060 0.000030 0.202103 0.065158 -108.062805 322.776428
22 322.776428 -0.000060 0.000030 0.202103 0.065158 -108.062805 322.776428
[R_front_hand]
21 238.847015 -0.006795 2.210259 -2.635298 -10.645461 -26.312506 238.857239
22 238.847015 -0.006795 2.210259 -2.635298 -10.645461 -26.312506 238.857239
[R_weapon_bone]
21 155.664093 0.002503 -0.000030 0.003487 0.001180 -90.988930 155.664078
22 155.664093 0.002503 -0.000030 0.003487 0.001180 -90.988930 155.664078
[R_front_hand01_01]
21 87.624611 14.231146 22.918642 -148.973007 -58.126900 55.145290 91.683487
22 87.624611 14.231146 22.918642 -151.115143 -58.881382 57.655827 91.683487
[R_front_hand02_01]
21 89.356956 14.367283 -19.491137 149.291199 56.493172 57.447308 92.579636
22 89.356956 14.367283 -19.491137 151.297699 57.240032 59.838203 92.579636
[R_front_hand03_01]
21 87.286232 -22.307278 -0.143439 0.132938 -0.433087 -71.919731 90.091743
22 87.286232 -22.307278 -0.143439 0.145555 -0.432305 -73.430145 90.091743
[R_front_hand01_02]
21 71.020905 0.000060 0.000119 0.002323 -0.000334 106.381714 71.020905
22 71.020905 0.000060 0.000119 0.002323 -0.000334 106.381714 71.020905
[R_front_hand02_02]
21 71.020844 -0.000030 -0.000119 0.002323 -0.000334 106.381714 71.020836
22 71.020844 -0.000030 -0.000119 0.002323 -0.000334 106.381714 71.020836
[R_front_hand03_02]
21 71.020905 0.000000 0.000030 0.002323 -0.000334 106.381714 71.020905
22 71.020905 0.000000 0.000030 0.002323 -0.000334 106.381714 71.020905
[null_rope01_connect]
21 328.732483 0.000000 -0.000238 -116.539322 -79.401123 167.951889 328.732483
22 328.732483 0.000000 -0.000238 -116.481407 -77.924782 167.344604 328.732483
[Rope1_Seg01]
21 -0.000024 0.000010 0.000040 104.976707 9.829787 -146.867447 0.000047
22 -0.000023 0.000008 0.000034 105.796326 7.082081 -153.274384 0.000042
[Rope1_Seg02]
21 139.999863 -0.000179 0.000000 35.530018 -8.574099 -16.444075 139.999863
22 139.999863 -0.000179 0.000000 23.193504 -9.273273 -12.978569 139.999863
[Rope1_Seg03]
21 139.999924 0.000060 -0.000060 46.352062 -31.422102 -20.393545 139.999924
22 139.999924 0.000060 -0.000060 38.464695 -25.957878 -20.274099 139.999924
[Rope1_Seg04]
21 139.999924 -0.000060 -0.000119 4.058302 -33.228165 11.655334 139.999924
22 139.999924 -0.000060 -0.000119 10.767302 -32.468376 1.783353 139.999924
[Rope1_Seg05]
21 139.999832 0.000119 -0.000060 -4.656828 -25.347713 16.575191 139.999832
22 139.999832 0.000119 -0.000060 -4.354048 -25.397915 19.047510 139.999832
[Rope1_Seg06]
21 139.999954 0.000119 -0.000060 -3.317184 -12.412767 6.726254 139.999954
22 139.999954 0.000119 -0.000060 -3.586233 -14.837335 9.544794 139.999954
[Rope1_Seg07]
21 139.999985 0.000060 0.000000 -1.742601 -5.142711 2.451733 139.999985
22 139.999985 0.000060 0.000000 -2.436704 -7.309671 3.935154 139.999985
[Rope1_Seg09]
21 121.602913 0.000119 -0.000089 -89.793175 -1.359789 0.847147 121.602913
22 121.602913 0.000119 -0.000089 -89.793175 -1.359789 0.847147 121.602913
[L_mid_hand01]
21 103.859421 1.038730 8.195221 130.544373 -67.584534 -38.866943 104.187431
22 103.859421 1.038730 8.195221 130.544373 -67.584534 -38.866947 104.187431
[L_mid_hand02]
21 105.572853 -4.139662 -10.864139 -168.923172 43.409309 -73.498886 106.211075
22 105.572853 -4.139662 -10.864139 -168.923172 43.409321 -73.498909 106.211075
[L_mid_hand03]
21 104.641464 17.579376 -3.913581 -6.012627 17.808174 74.893669 106.179977
22 104.641464 17.579376 -3.913581 -6.012628 17.808178 74.893669 106.179977
[null_rope02_connect]
21 328.732849 0.000179 -0.000119 -106.807640 44.530556 17.676105 328.732849
22 328.732849 0.000179 -0.000119 -109.650841 39.472698 15.522507 328.732849
[Rope2_Seg01]
21 -0.000093 0.000095 0.000000 -70.686226 27.293871 -3.708828 0.000133
22 -0.000102 0.000094 0.000000 -65.172684 23.214815 -3.716476 0.000139
[Rope2_Seg02]
21 139.999741 -0.000060 -0.000119 -9.295351 2.750419 6.596835 139.999756
22 139.999741 -0.000060 -0.000119 -9.634179 2.514975 7.037584 139.999756
[Rope2_Seg03]
21 140.000107 0.000030 0.000000 -14.901446 2.990296 12.821956 140.000107
22 140.000107 0.000030 0.000000 -14.897405 2.348552 13.547295 140.000107
[Rope2_Seg04]
21 139.999802 0.000000 -0.000060 -19.969843 -1.185814 28.857201 139.999802
22 139.999802 0.000000 -0.000060 -18.338066 -2.939121 28.285511 139.999802
[Rope2_Seg05]
21 139.999985 -0.000060 0.000119 -9.571252 -10.115788 27.726654 139.999985
22 139.999985 -0.000060 0.000119 -8.857868 -10.351095 27.683098 139.999985
[Rope2_Seg06]
21 139.999893 -0.000030 -0.000119 -1.540855 -8.341177 17.709145 139.999893
22 139.999893 -0.000030 -0.000119 -1.115957 -8.445837 19.312449 139.999893
[Rope2_Seg07]
21 139.999893 0.000060 -0.000060 1.180226 -6.315959 12.548766 139.999893
22 139.999893 0.000060 -0.000060 1.632984 -5.694786 12.111229 139.999893
[Rope2_Seg09]
21 121.338966 0.000089 -0.000060 33.793236 -1.359788 -0.847141 121.338966
22 121.338966 0.000089 -0.000060 33.793236 -1.359788 -0.847141 121.338966
[R_mid_hand01]
21 104.680779 11.144459 -10.335981 -16.212063 45.237247 70.462852 105.778534
22 104.680779 11.144459 -10.335981 -16.212063 45.237247 70.462852 105.778534
[R_mid_hand02]
21 104.070427 2.443552 8.231699 49.067368 -67.749771 39.286453 104.424065
22 104.070427 2.443552 8.231699 49.067368 -67.749771 39.286453 104.424065
[R_mid_hand03]
21 106.028137 -11.221827 -5.996406 -177.101105 15.551026 -76.585571 106.788818
22 106.028137 -11.221827 -5.996406 -177.101105 15.551026 -76.585571 106.788818
[spine02]
21 129.756927 0.001550 0.000119 0.360061 -4.044797 -12.915058 129.756927
22 129.756927 0.001550 0.000119 0.360061 -4.044797 -12.915058 129.756927
[spine03]
21 78.614067 0.081635 -4.899013 1.896495 3.831288 16.473045 78.766602
22 78.614067 0.081635 -4.899014 1.896495 3.831288 16.473045 78.766602
[pelvis]
21 169.435242 0.051022 0.000000 -0.060465 -0.180225 14.087930 169.435257
22 169.435242 0.051022 0.000000 -0.060465 -0.180225 14.087930 169.435257
[null_rope03_connect]
21 -1.257226 -2.466202 137.391083 51.785595 -78.819321 28.763262 137.418976
22 -1.257226 -2.466202 137.391083 49.697018 -77.465195 30.482748 137.418976
[null_rope04_connect]
21 -1.259640 -2.480268 -137.844437 51.785595 -78.819321 28.763262 137.872513
22 -1.259640 -2.480268 -137.844437 49.697018 -77.465195 30.482748 137.872513
[Rope3_Seg01]
21 0.000010 0.000010 -0.000040 -165.302048 -67.971764 -51.537495 0.000042
22 0.000010 0.000008 -0.000034 165.328247 -76.963814 -26.564348 0.000036
[Rope3_Seg02]
21 139.999924 -0.000119 0.000060 14.697872 -27.958073 2.896705 139.999924
22 139.999924 -0.000119 0.000060 15.753632 -27.779072 1.898979 139.999924
[Rope3_Seg03]
21 139.999924 -0.000119 0.000119 6.589216 -9.033970 3.556188 139.999924
22 139.999924 -0.000119 0.000119 12.000370 -15.485550 9.562452 139.999924
[Rope3_Seg04]
21 139.999924 0.000119 0.000000 10.680945 -14.019134 7.430716 139.999924
22 139.999924 0.000119 0.000000 9.903538 -13.400430 6.212665 139.999924
[Rope3_Seg05]
21 139.999924 -0.000238 0.000060 13.039571 -18.200092 15.335917 139.999924
22 139.999924 -0.000238 0.000060 15.105987 -19.877825 6.971997 139.999924
[Rope3_Seg06]
21 139.999893 -0.000119 -0.000060 5.912804 -7.340760 10.351594 139.999893
22 139.999893 -0.000119 -0.000060 10.043245 -10.894847 7.857391 139.999893
[Rope3_Seg07]
21 139.999771 0.000060 -0.000119 3.043549 -3.418031 6.170272 139.999771
22 139.999771 0.000060 -0.000119 5.260024 -4.739162 5.420108 139.999771
[Rope3_Seg08]
21 139.999985 -0.000060 0.000000 1.816491 -1.758516 3.640047 139.999985
22 139.999985 -0.000060 0.000000 3.078296 -2.425194 3.366366 139.999985
[Rope3_Seg09]
21 90.185997 -0.000179 -0.000060 89.793228 -1.359877 -0.847183 90.185997
22 90.185997 -0.000179 -0.000060 89.793228 -1.359877 -0.847183 90.185997
[R_rear_hand01]
21 103.366196 -6.073594 -10.757982 -177.714203 24.565960 -73.910950 104.101845
22 103.366196 -6.073594 -10.757982 -177.714203 24.565960 -73.910950 104.101845
[R_rear_hand02]
21 100.509819 12.039542 -7.992327 -12.874829 36.868488 72.167213 101.543350
22 100.509819 12.039542 -7.992327 -12.874829 36.868488 72.167213 101.543350
[R_rear_hand03]
21 101.539970 5.215704 5.435467 71.484581 -71.816628 21.513813 101.819031
22 101.539970 5.215704 5.435467 71.484581 -71.816628 21.513813 101.819031
[Rope4_Seg01]
21 0.000010 0.000038 -0.000114 86.835564 -39.323589 -151.833420 0.000121
22 0.000010 0.000038 -0.000114 90.846207 -43.587849 -151.658737 0.000121
[Rope4_Seg02]
21 139.999985 0.000060 0.000119 -16.307880 11.814179 -12.616918 139.999985
22 139.999985 0.000060 0.000119 -17.088133 9.101731 -14.601749 139.999985
[Rope4_Seg03]
21 139.999924 0.000000 -0.000238 -21.733837 32.540417 -22.407825 139.999924
22 139.999924 0.000000 -0.000238 -27.126663 28.659960 -28.566017 139.999924
[Rope4_Seg04]
21 139.999985 0.000000 0.000119 -2.631837 31.195633 -8.772446 139.999985
22 139.999985 0.000000 0.000119 -5.661269 29.324430 -11.786754 139.999985
[Rope4_Seg05]
21 139.999802 -0.000060 -0.000119 2.960766 14.790793 -5.203620 139.999802
22 139.999802 -0.000060 -0.000119 1.551594 15.955031 -6.782457 139.999802
[Rope4_Seg06]
21 139.999924 0.000000 0.000060 7.850752 17.687716 -9.470942 139.999924
22 139.999924 0.000000 0.000060 7.214200 22.814558 -13.179334 139.999924
[Rope4_Seg07]
21 139.999802 0.000000 0.000000 12.379213 15.109946 -11.495307 139.999802
22 139.999802 0.000000 0.000000 11.889835 16.591080 -13.436492 139.999802
[Rope4_Seg08]
21 139.999924 0.000000 0.000119 6.582825 6.111574 -7.112983 139.999924
22 139.999924 0.000000 0.000119 5.593211 5.836362 -7.259552 139.999924
[Rope4_Seg09]
21 90.185791 0.000060 0.000060 -135.617828 2.228885 0.850567 90.185791
22 90.185791 0.000060 0.000060 -135.617828 2.228885 0.850567 90.185791
[L_rear_hand01]
21 101.696655 -8.392275 -7.654577 -12.874829 -36.868488 107.832764 102.329041
22 101.696655 -8.392275 -7.654577 -12.874829 -36.868488 107.832764 102.329041
[L_rear_hand02]
21 102.726799 -1.568258 5.773216 71.484581 71.816628 158.486160 102.900848
22 102.726799 -1.568258 5.773216 71.484634 71.816666 158.486176 102.900848
[L_rear_hand03]
21 104.552910 9.721220 -10.420293 -177.714203 -24.565960 -106.089035 105.519653
22 104.552910 9.721220 -10.420293 -177.714203 -24.565960 -106.089035 105.519653
